<?xml version="1.0" encoding="utf-8"?>
<!DOCTYPE svg PUBLIC "-//W3C//DTD SVG 20010904//EN" "http://www.w3.org/TR/2001/REC-SVG-20010904/DTD/svg10.dtd">
<svg version="1.0" xmlns="http://www.w3.org/2000/svg" width="182pt" height="92pt" viewBox="0 0 182 92" style="" preserveAspectRatio="xMidYMid meet">
<g fill="#000000FF" stroke="#000000FF">
<path d="M 150.763 27.565 C 147.044 29.583 145.000 33.924 145.000 39.802 C 145.000 46.444 148.109 51.038 153.839 52.863 C 157.616 54.067 158.649 54.024 162.644 52.498 C 168.375 50.309 170.991 46.276 170.996 39.618 C 171.001 33.699 168.250 28.761 163.959 26.983 C 162.296 26.294 160.691 25.975 160.393 26.274 C 160.094 26.573 160.788 27.115 161.936 27.480 C 165.017 28.458 167.000 33.165 167.000 39.500 C 167.000 48.983 162.671 53.965 155.754 52.446 C 151.437 51.498 149.001 46.800 149.039 39.500 C 149.074 32.842 150.523 29.384 154.110 27.396 C 155.515 26.617 155.882 26.073 155.000 26.075 C 154.175 26.078 152.268 26.748 150.763 27.565 "/></g>
<g fill="#000000FF" stroke="#000000FF">
<path d="M 54.000 36.748 C 54.275 42.662 55.070 48.497 55.767 49.716 C 57.630 52.975 64.299 54.538 68.889 52.791 C 73.835 50.909 74.968 48.058 74.985 37.450 C 74.995 31.763 75.446 27.954 76.200 27.200 C 77.133 26.267 76.756 26.000 74.500 26.000 C 72.244 26.000 71.867 26.267 72.800 27.200 C 73.559 27.959 74.000 31.770 74.000 37.565 C 74.000 45.323 73.682 47.135 71.927 49.365 C 70.249 51.499 69.018 52.000 65.450 52.000 C 58.813 52.000 57.788 49.825 58.184 36.573 L 58.500 25.996 56.000 25.996 L 53.500 25.996 54.000 36.748 "/></g>
<g fill="#000000FF" stroke="#000000FF">
<path d="M 14.809 38.639 C 15.007 46.731 14.731 51.669 14.043 52.357 C 13.276 53.124 15.910 53.451 23.234 53.497 C 33.315 53.561 34.952 53.087 34.985 50.095 C 34.997 48.943 34.685 48.969 33.250 50.236 C 31.151 52.091 23.913 53.425 20.988 52.496 C 18.980 51.859 18.904 51.284 19.196 38.914 L 19.500 25.996 17.000 25.996 L 14.500 25.996 14.809 38.639 "/></g>
<g fill="#000000FF" stroke="#000000FF">
<path d="M 107.636 28.500 C 112.286 35.375 115.850 41.000 115.555 41.000 C 114.989 41.000 117.319 44.053 120.250 47.150 C 121.213 48.168 122.978 49.000 124.174 49.000 L 126.349 49.000 124.305 46.750 C 123.181 45.513 118.186 38.373 113.203 30.885 C 105.059 18.643 102.716 16.000 100.009 16.000 C 99.555 16.000 102.987 21.625 107.636 28.500 "/></g>
<g fill="#E3A51EFF" stroke="#E3A51EFF">
<path d="M 112.132 48.897 C 111.054 49.580 111.650 51.067 114.955 55.934 C 117.260 59.328 120.267 62.531 121.638 63.052 C 125.307 64.447 125.569 64.242 123.300 61.750 C 122.174 60.513 119.557 56.913 117.484 53.750 C 115.412 50.588 113.668 48.007 113.608 48.015 C 113.549 48.024 112.885 48.420 112.132 48.897 "/></g>
<g fill="#E3A51EFF" stroke="#E3A51EFF">
<path d="M 104.579 40.726 C 103.523 42.158 103.235 42.973 103.940 42.537 C 104.770 42.024 106.032 42.759 107.521 44.623 C 109.923 47.628 111.620 47.463 110.575 44.325 C 110.240 43.321 109.187 41.515 108.233 40.312 L 106.500 38.124 104.579 40.726 "/></g>
<g fill="#000000FF" stroke="#000000FF">
<path d="M 101.145 61.587 L 98.790 64.000 102.017 64.000 C 104.665 64.000 105.037 63.749 104.087 62.605 C 103.451 61.838 103.058 60.752 103.215 60.192 C 103.372 59.632 102.440 60.260 101.145 61.587 "/></g>
<g fill="#000000FF" stroke="#000000FF">
<path d="M 48.141 71.750 C 48.063 74.638 48.350 77.000 48.778 77.000 C 49.206 77.000 49.269 74.638 48.919 71.750 L 48.282 66.500 48.141 71.750 "/></g>
<g fill="#000000FF" stroke="#000000FF">
<path d="M 38.141 71.750 C 38.063 74.638 38.350 77.000 38.778 77.000 C 39.206 77.000 39.269 74.638 38.919 71.750 L 38.282 66.500 38.141 71.750 "/></g>
<g fill="#000000FF" stroke="#000000FF">
<path d="M 18.079 68.300 C 17.983 70.493 20.924 76.410 21.716 75.617 C 22.029 75.304 21.831 74.475 21.277 73.774 C 20.722 73.073 19.794 71.150 19.213 69.500 C 18.575 67.686 18.127 67.211 18.079 68.300 "/></g>
<g fill="#E3A51EFF" stroke="#E3A51EFF">
<path d="M 100.255 46.638 L 98.151 49.000 100.359 49.000 C 102.041 49.000 102.541 48.439 102.463 46.638 L 102.359 44.276 100.255 46.638 "/></g>
<g fill="#000000FF" stroke="#000000FF">
<path d="M 91.750 72.754 C 93.698 74.581 95.000 75.251 95.000 74.427 C 95.000 73.670 93.538 72.299 91.750 71.379 L 88.500 69.706 91.750 72.754 "/></g>
<g fill="#000000FF" stroke="#000000FF">
<path d="M 82.250 72.258 C 84.313 74.189 85.993 75.484 85.985 75.135 C 85.956 73.930 84.490 72.448 81.500 70.600 C 78.844 68.959 78.930 69.149 82.250 72.258 "/></g>
<g fill="#000000FF" stroke="#000000FF">
<path d="M 61.008 70.788 C 62.779 73.146 64.579 75.171 65.008 75.288 C 65.437 75.405 63.988 73.475 61.788 71.000 L 57.789 66.500 61.008 70.788 "/></g>
<g fill="#000000FF" stroke="#000000FF">
<path d="M 13.079 67.601 C 12.931 69.669 15.194 75.000 16.220 75.000 C 16.900 75.000 16.913 74.580 16.257 73.750 C 15.713 73.063 14.794 71.150 14.213 69.500 C 13.633 67.850 13.122 66.995 13.079 67.601 "/></g>
<g fill="#000000FF" stroke="#000000FF">
<path d="M 122.508 29.012 C 122.921 29.681 123.705 29.692 124.817 29.043 C 126.268 28.196 126.182 28.057 124.191 28.030 C 122.882 28.013 122.153 28.438 122.508 29.012 "/></g>
<g fill="#E3A51EFF" stroke="#E3A51EFF">
<path d="M 120.030 17.750 C 120.059 19.417 120.109 19.417 121.080 17.750 C 121.781 16.547 121.771 16.000 121.050 16.000 C 120.472 16.000 120.014 16.788 120.030 17.750 "/></g>
</svg>
